<svg width="72" height="19" viewBox="0 0 72 19" fill="none" xmlns="http://www.w3.org/2000/svg">
<g clip-path="url(#clip0_32_440)">
<path d="M26.9277 4.68142H22.9449C22.813 4.68134 22.6855 4.72797 22.5852 4.81293C22.485 4.89788 22.4186 5.01557 22.398 5.14478L20.7872 15.2768C20.7798 15.3238 20.7827 15.3719 20.7958 15.4177C20.8089 15.4634 20.8319 15.5058 20.8631 15.542C20.8943 15.5781 20.9331 15.6071 20.9767 15.627C21.0203 15.6468 21.0677 15.657 21.1156 15.657H23.0171C23.149 15.657 23.2767 15.6103 23.3769 15.5253C23.4772 15.4402 23.5435 15.3224 23.5639 15.193L23.9984 12.4603C24.0188 12.3311 24.085 12.2133 24.1852 12.1283C24.2853 12.0432 24.4128 11.9964 24.5447 11.9963H25.8055C28.4291 11.9963 29.9433 10.7368 30.3387 8.24095C30.5169 7.149 30.3463 6.29104 29.8309 5.69017C29.2648 5.03038 28.2608 4.68142 26.9277 4.68142ZM27.3872 8.38192C27.1694 9.79973 26.0775 9.79973 25.0216 9.79973H24.4206L24.8423 7.15189C24.8546 7.07442 24.8944 7.00387 24.9545 6.95293C25.0146 6.90198 25.0911 6.87399 25.1701 6.87399H25.4456C26.1648 6.87399 26.8433 6.87399 27.1939 7.28073C27.403 7.52338 27.467 7.8839 27.3872 8.38192ZM38.8332 8.33628H36.9259C36.8469 8.33628 36.7704 8.36427 36.7103 8.41522C36.6502 8.46616 36.6104 8.53671 36.5981 8.61418L36.5136 9.1434L36.3803 8.95159C35.9674 8.35708 35.0466 8.15833 34.1276 8.15833C32.02 8.15833 30.2199 9.74195 29.8693 11.9634C29.687 13.0715 29.9462 14.1311 30.5798 14.8701C31.161 15.5495 31.9926 15.8326 32.9821 15.8326C34.6803 15.8326 35.622 14.7493 35.622 14.7493L35.537 15.2751C35.5294 15.3221 35.5322 15.3702 35.5451 15.416C35.5581 15.4618 35.5809 15.5043 35.612 15.5406C35.6431 15.5768 35.6818 15.606 35.7253 15.6259C35.7689 15.6459 35.8163 15.6563 35.8643 15.6564H37.5823C37.7142 15.6565 37.8418 15.6097 37.9421 15.5247C38.0424 15.4396 38.1087 15.3218 38.1291 15.1925L39.1599 8.71644C39.1675 8.66954 39.1647 8.62156 39.1518 8.57583C39.1389 8.53009 39.1161 8.48768 39.085 8.45153C39.054 8.41539 39.0154 8.38636 38.9719 8.36646C38.9284 8.34656 38.8811 8.33627 38.8332 8.33628ZM36.1747 12.0189C35.9906 13.0998 35.1258 13.8255 34.0228 13.8255C33.469 13.8255 33.0264 13.6493 32.7422 13.3154C32.4603 12.9837 32.3531 12.5117 32.4428 11.9859C32.6146 10.9142 33.494 10.1649 34.5801 10.1649C35.1217 10.1649 35.562 10.3434 35.852 10.6802C36.1426 11.0205 36.258 11.4954 36.1747 12.0189ZM48.991 8.33628H47.0744C46.984 8.33642 46.895 8.35844 46.8151 8.40042C46.7353 8.44241 46.6669 8.50309 46.6161 8.5772L43.9727 12.4401L42.8522 8.728C42.8178 8.61478 42.7476 8.51556 42.6519 8.44501C42.5563 8.37446 42.4402 8.33634 42.3211 8.33628H40.4377C40.3848 8.33614 40.3327 8.34853 40.2856 8.37242C40.2385 8.39631 40.1979 8.431 40.1671 8.47361C40.1362 8.51623 40.1161 8.56553 40.1084 8.61741C40.1007 8.6693 40.1055 8.72227 40.1226 8.77191L42.2337 14.918L40.249 17.6976C40.2137 17.7469 40.1928 17.8048 40.1885 17.8651C40.1842 17.9254 40.1967 17.9857 40.2247 18.0394C40.2527 18.0931 40.295 18.1381 40.347 18.1696C40.3991 18.201 40.4588 18.2176 40.5198 18.2176H42.434C42.5234 18.2177 42.6115 18.1963 42.6907 18.1553C42.7699 18.1142 42.8379 18.0547 42.8889 17.9819L49.2635 8.85337C49.2981 8.80398 49.3184 8.74615 49.3221 8.68615C49.3259 8.62616 49.3131 8.56627 49.285 8.513C49.2569 8.45973 49.2147 8.4151 49.1628 8.38394C49.111 8.35279 49.0516 8.33631 48.991 8.33628Z" fill="#253B80"/>
<path d="M55.3365 4.68142H51.3531C51.2213 4.68148 51.0939 4.72818 50.9938 4.81312C50.8936 4.89806 50.8273 5.01567 50.8068 5.14478L49.196 15.2768C49.1885 15.3238 49.1913 15.3717 49.2043 15.4175C49.2173 15.4632 49.2402 15.5056 49.2713 15.5417C49.3024 15.5779 49.341 15.6069 49.3845 15.6268C49.428 15.6467 49.4754 15.657 49.5233 15.657H51.5674C51.6596 15.6569 51.7488 15.6241 51.8188 15.5646C51.8888 15.505 51.9352 15.4227 51.9494 15.3323L52.4066 12.4603C52.427 12.3311 52.4932 12.2133 52.5934 12.1283C52.6936 12.0432 52.821 11.9964 52.9529 11.9963H54.2131C56.8373 11.9963 58.3509 10.7368 58.7469 8.24096C58.9257 7.149 58.7539 6.29104 58.2385 5.69018C57.673 5.03039 56.6696 4.68142 55.3365 4.68142ZM55.796 8.38193C55.5788 9.79973 54.4868 9.79973 53.4304 9.79973H52.83L53.2522 7.15189C53.2643 7.07442 53.304 7.00381 53.364 6.95284C53.424 6.90187 53.5005 6.8739 53.5795 6.87399H53.855C54.5736 6.87399 55.2527 6.87399 55.6033 7.28073C55.8123 7.52339 55.8758 7.88391 55.796 8.38193ZM67.2414 8.33629H65.3353C65.2563 8.33607 65.1798 8.364 65.1197 8.41499C65.0596 8.46599 65.02 8.53667 65.008 8.61418L64.9236 9.14341L64.7896 8.95159C64.3767 8.35708 63.4566 8.15834 62.5376 8.15834C60.43 8.15834 58.6304 9.74196 58.2798 11.9634C58.0981 13.0715 58.3561 14.1311 58.9898 14.8701C59.5721 15.5495 60.4026 15.8326 61.3921 15.8326C63.0903 15.8326 64.032 14.7493 64.032 14.7493L63.9469 15.2751C63.9393 15.3222 63.9422 15.3704 63.9552 15.4163C63.9682 15.4622 63.9911 15.5048 64.0224 15.541C64.0536 15.5773 64.0924 15.6064 64.1361 15.6263C64.1798 15.6462 64.2273 15.6565 64.2754 15.6564H65.9928C66.1247 15.6563 66.2521 15.6095 66.3523 15.5245C66.4524 15.4394 66.5187 15.3217 66.5391 15.1925L67.5705 8.71645C67.5778 8.6694 67.5747 8.62134 67.5616 8.57556C67.5484 8.52979 67.5254 8.48739 67.4941 8.45127C67.4628 8.41515 67.4241 8.38617 67.3805 8.36633C67.3368 8.34648 67.2894 8.33623 67.2414 8.33629ZM64.5829 12.0189C64.4 13.0999 63.534 13.8255 62.431 13.8255C61.8783 13.8255 61.4346 13.6493 61.1504 13.3154C60.8685 12.9837 60.7625 12.5117 60.851 11.9859C61.024 10.9142 61.9022 10.1649 62.9883 10.1649C63.5299 10.1649 63.9702 10.3434 64.2603 10.6802C64.552 11.0205 64.6673 11.4954 64.5829 12.0189ZM69.49 4.95932L67.8552 15.2768C67.8478 15.3238 67.8506 15.3717 67.8636 15.4175C67.8766 15.4632 67.8995 15.5056 67.9306 15.5417C67.9617 15.5779 68.0003 15.6069 68.0438 15.6268C68.0873 15.6467 68.1346 15.657 68.1825 15.657H69.826C70.0991 15.657 70.3309 15.4605 70.3728 15.193L71.9849 5.06159C71.9923 5.01462 71.9895 4.96661 71.9765 4.92084C71.9635 4.87508 71.9407 4.83265 71.9096 4.79647C71.8785 4.7603 71.8398 4.73123 71.7963 4.71127C71.7528 4.69131 71.7055 4.68093 71.6576 4.68085H69.8173C69.7383 4.68112 69.6619 4.7093 69.602 4.76033C69.542 4.81136 69.5023 4.8819 69.49 4.95932Z" fill="#179BD7"/>
<path d="M4.24718 17.626L4.55176 15.7067L3.87329 15.6911H0.633545L2.885 1.52863C2.89171 1.48535 2.91386 1.44591 2.94743 1.41749C2.98099 1.38907 3.02374 1.37356 3.06787 1.37379H8.53054C10.3441 1.37379 11.5956 1.74817 12.249 2.48712C12.5553 2.83377 12.7504 3.19602 12.8448 3.59467C12.9438 4.01296 12.9455 4.51272 12.8488 5.12225L12.8419 5.16673V5.55729L13.1482 5.72946C13.382 5.847 13.5922 6.006 13.7684 6.1986C14.0305 6.49499 14.2 6.87168 14.2716 7.31828C14.3455 7.7776 14.3211 8.32415 14.2 8.94292C14.0602 9.65471 13.8342 10.2746 13.5291 10.7819C13.2598 11.2363 12.8978 11.6299 12.4662 11.9374C12.0609 12.2228 11.5793 12.4395 11.0347 12.5781C10.5071 12.7145 9.90553 12.7832 9.2457 12.7832H8.82056C8.51656 12.7832 8.2213 12.8919 7.98951 13.0866C7.75806 13.2833 7.60452 13.5552 7.55623 13.8538L7.5242 14.0266L6.98608 17.4093L6.96162 17.5335C6.95522 17.5728 6.94415 17.5924 6.92785 17.6057C6.91205 17.6186 6.89234 17.6257 6.87194 17.626H4.24718Z" fill="#253B80"/>
<path d="M13.4383 5.2118C13.4219 5.31522 13.4033 5.42095 13.3823 5.52956C12.6619 9.19887 10.1973 10.4665 7.04961 10.4665H5.44691C5.06196 10.4665 4.73758 10.7438 4.6776 11.1205L3.85703 16.2833L3.62466 17.7467C3.61541 17.8048 3.61894 17.8641 3.63502 17.9207C3.6511 17.9772 3.67935 18.0297 3.71782 18.0744C3.75629 18.1191 3.80406 18.155 3.85785 18.1796C3.91164 18.2042 3.97017 18.217 4.02941 18.217H6.87198C7.2086 18.217 7.49454 17.9743 7.54754 17.645L7.57549 17.5017L8.11069 14.1323L8.14505 13.9474C8.19747 13.6169 8.484 13.3743 8.82061 13.3743H9.24574C11.9998 13.3743 14.1557 12.265 14.7859 9.05501C15.0491 7.71404 14.9128 6.59436 14.2163 5.80688C13.9955 5.56328 13.7319 5.36163 13.4383 5.2118Z" fill="#179BD7"/>
<path d="M12.6846 4.91368C12.4545 4.84767 12.2205 4.79614 11.984 4.75942C11.5165 4.68815 11.0441 4.65395 10.5711 4.65716H6.2895C6.12656 4.65703 5.96894 4.71474 5.84515 4.81986C5.72136 4.92497 5.63956 5.07055 5.61453 5.23029L4.7037 10.9535L4.67749 11.1205C4.70587 10.9383 4.79903 10.7722 4.94014 10.6522C5.08125 10.5323 5.26098 10.4664 5.44681 10.4665H7.0495C10.1972 10.4665 12.6618 9.19829 13.3822 5.52956C13.4038 5.42095 13.4218 5.31522 13.4381 5.2118C13.2481 5.11291 13.0499 5.03 12.8459 4.96394C12.7924 4.94633 12.7386 4.92958 12.6846 4.91368Z" fill="#222D65"/>
<path d="M5.61452 5.23029C5.63933 5.07051 5.72109 4.92486 5.84495 4.8198C5.9688 4.71474 6.12653 4.65723 6.28949 4.65774H10.5711C11.0784 4.65774 11.5518 4.69067 11.9839 4.76C12.2764 4.80559 12.5647 4.87378 12.8464 4.96394C13.059 5.03385 13.2564 5.11647 13.4387 5.2118C13.653 3.85582 13.437 2.93257 12.6979 2.09656C11.8832 1.1762 10.4127 0.782173 8.53105 0.782173H3.06838C2.68401 0.782173 2.35613 1.05949 2.29673 1.43677L0.0213962 15.7448C0.010798 15.8112 0.0148303 15.8791 0.0332155 15.9439C0.0516007 16.0086 0.0839026 16.0686 0.127899 16.1198C0.171896 16.171 0.226543 16.2121 0.288081 16.2403C0.34962 16.2685 0.41659 16.2832 0.484384 16.2833H3.85691L4.70369 10.9535L5.61452 5.23029Z" fill="#253B80"/>
</g>
<defs>
<clipPath id="clip0_32_440">
<rect width="72" height="19" fill="white"/>
</clipPath>
</defs>
</svg>
