<svg width="64" height="21" viewBox="0 0 64 21" fill="none" xmlns="http://www.w3.org/2000/svg">
<g clip-path="url(#clip0_32_430)">
<path d="M63.7832 6.21315C63.4908 5.34185 62.9465 4.58701 62.2257 4.05303C61.5048 3.51905 60.643 3.23231 59.7594 3.23245H59.7214C58.512 3.23245 57.4243 3.75705 56.6484 4.5996C56.2506 4.16628 55.7728 3.82172 55.244 3.58675C54.7152 3.35177 54.1463 3.23124 53.5716 3.23245H53.5336C52.4687 3.23245 51.4989 3.63782 50.7573 4.30947V3.96769C50.7457 3.80217 50.6746 3.64738 50.5581 3.53453C50.4417 3.42169 50.2886 3.35919 50.1298 3.35962H47.2774C47.1945 3.35962 47.1124 3.37669 47.0358 3.40984C46.9592 3.443 46.8896 3.49159 46.831 3.55285C46.7723 3.61412 46.7258 3.68684 46.6941 3.76689C46.6624 3.84693 46.646 3.93272 46.646 4.01935V20.2065C46.646 20.5722 46.9275 20.8663 47.2774 20.8663H50.1298C50.2814 20.8658 50.4276 20.8079 50.5416 20.7035C50.6556 20.599 50.7295 20.455 50.7497 20.298V8.6772L50.7535 8.55797C50.7744 8.29568 50.8859 8.05029 51.0671 7.8675C51.2483 7.68471 51.4869 7.57699 51.7385 7.5644H52.2634C52.5337 7.58077 52.7876 7.7057 52.9718 7.91308C53.1561 8.12046 53.2566 8.39423 53.2522 8.6772L53.2636 20.2423C53.2636 20.608 53.545 20.902 53.8949 20.902H56.7473C57.082 20.902 57.3558 20.6238 57.371 20.2741V8.6613C57.3657 8.37806 57.4658 8.10373 57.6503 7.89613C57.8348 7.68854 58.0892 7.5639 58.3599 7.5485H58.8847C59.5046 7.60414 59.8735 8.09298 59.8735 8.6613L59.8849 20.2105C59.8849 20.5762 60.1702 20.8703 60.5163 20.8703H63.3687C63.4516 20.8703 63.5337 20.8532 63.6103 20.82C63.6868 20.7869 63.7564 20.7383 63.8151 20.677C63.8737 20.6158 63.9202 20.543 63.9519 20.463C63.9837 20.3829 64 20.2972 64 20.2105V7.79093C64 6.94441 63.9087 6.58276 63.7832 6.21315ZM44.4744 3.40334H42.8391V0.633277C42.8395 0.544427 42.8211 0.456579 42.7851 0.376077C42.7491 0.295575 42.6965 0.224427 42.631 0.167771C42.5655 0.111114 42.4888 0.0703631 42.4064 0.0484592C42.324 0.0265552 42.2379 0.0240454 42.1545 0.0411108C40.348 0.56174 40.7093 3.18078 37.4081 3.40334H37.0886C37.0426 3.40365 36.9967 3.40898 36.9517 3.41924H36.9441C36.8039 3.45179 36.6785 3.53331 36.5886 3.65036C36.4988 3.76741 36.4497 3.91299 36.4497 4.06307V7.04377C36.4497 7.40146 36.7349 7.69953 37.0848 7.69953H38.8077L38.8039 20.3377C38.8039 20.6994 39.0815 20.9935 39.4276 20.9935H42.2458C42.588 20.9935 42.8695 20.6994 42.8695 20.3417V7.7035H44.4668C44.6343 7.7035 44.7948 7.63399 44.9132 7.51027C45.0316 7.38655 45.0982 7.21874 45.0982 7.04377V4.06307C45.0982 3.88947 45.0327 3.72286 44.9159 3.59936C44.7992 3.47586 44.6405 3.40543 44.4744 3.40334Z" fill="#54C1F0"/>
<path d="M34.2097 3.40334H31.3573C31.1905 3.40439 31.0309 3.47436 30.9133 3.59797C30.7957 3.72157 30.7297 3.88878 30.7297 4.06306V10.2232C30.7267 10.4066 30.6549 10.5815 30.5297 10.7101C30.4045 10.8387 30.2359 10.9108 30.0604 10.9107H28.8662C28.6893 10.9107 28.5196 10.8376 28.3942 10.7073C28.2688 10.5769 28.1978 10.4001 28.1968 10.2152L28.1854 4.06306C28.1854 3.97643 28.1691 3.89064 28.1373 3.8106C28.1056 3.73056 28.0591 3.65783 28.0005 3.59657C27.9419 3.5353 27.8723 3.48671 27.7957 3.45355C27.7191 3.4204 27.637 3.40334 27.5541 3.40334H24.7017C24.5349 3.40439 24.3753 3.47436 24.2577 3.59797C24.1402 3.72157 24.0742 3.88878 24.0742 4.06306V10.8193C24.0742 13.3827 25.8236 15.2109 28.2805 15.2109C28.2805 15.2109 30.125 15.2109 30.1821 15.2228C30.3423 15.2439 30.4897 15.3251 30.5969 15.4513C30.704 15.5775 30.7636 15.7401 30.7646 15.9089C30.7655 16.0776 30.7077 16.2409 30.6019 16.3684C30.4962 16.4959 30.3496 16.5789 30.1897 16.6019L30.1402 16.6098L25.9681 16.6257C25.8014 16.6268 25.6418 16.6967 25.5242 16.8204C25.4066 16.944 25.3406 17.1112 25.3406 17.2855V20.2662C25.3406 20.6278 25.6221 20.9219 25.9681 20.9219H30.6347C33.0915 20.9219 34.841 19.0937 34.841 16.5264V4.06306C34.841 3.88809 34.7745 3.72029 34.6561 3.59657C34.5377 3.47284 34.3771 3.40334 34.2097 3.40334ZM6.60233 8.86398V10.7041C6.60233 10.8896 6.53181 11.0675 6.40628 11.1987C6.28075 11.3298 6.11049 11.4035 5.93297 11.4035H4.12265V7.71939H5.93297C6.30188 7.71939 6.60233 8.02938 6.60233 8.41489V8.86398ZM6.85334 3.40334H0.616116C0.45302 3.40438 0.296887 3.47254 0.181559 3.59306C0.0662299 3.71358 0.000997559 3.87673 0 4.04717V20.2463C0 20.604 0.254813 20.8981 0.574281 20.906H3.47991C3.64735 20.906 3.80793 20.8365 3.92633 20.7128C4.04473 20.5891 4.11124 20.4213 4.11124 20.2463L4.12265 15.7156H6.85334C9.13525 15.7156 10.725 14.0583 10.725 11.6619V7.46106C10.725 5.06458 9.13525 3.40334 6.85334 3.40334ZM18.4378 15.8627V16.3277C18.4354 16.3982 18.4226 16.4679 18.3998 16.5343C18.3512 16.6685 18.2641 16.7837 18.1504 16.8641C18.0367 16.9445 17.9019 16.9861 17.7647 16.9834H16.5781C16.2054 16.9834 15.9049 16.6893 15.9049 16.3277V15.7633V13.7762C15.9049 13.4185 16.2092 13.1244 16.5781 13.1244H17.7647C18.1374 13.1244 18.4378 13.4185 18.4378 13.7802V15.8627ZM17.9815 3.41923H14.0261C13.6763 3.41923 13.391 3.69743 13.391 4.03524V6.83313C13.391 7.19081 13.6953 7.48888 14.0642 7.48888H17.8293C18.1298 7.53657 18.3618 7.76708 18.3998 8.11682V8.50232C18.3618 8.84014 18.1336 9.08654 17.8483 9.11436H15.981C13.4975 9.11436 11.729 10.8392 11.729 13.2595V16.7251C11.729 19.1295 13.2503 20.8424 15.7148 20.8424H20.8871C21.8151 20.8424 22.5681 20.1072 22.5681 19.2011V7.89426C22.5681 5.15201 21.218 3.41923 17.9815 3.41923Z" fill="#233266"/>
</g>
<defs>
<clipPath id="clip0_32_430">
<rect width="64" height="21" fill="white"/>
</clipPath>
</defs>
</svg>
