<svg width="104" height="22" viewBox="0 0 104 22" fill="none" xmlns="http://www.w3.org/2000/svg">
<g clip-path="url(#clip0_32_417)">
<path d="M6.68701 5.80157L5.82251 8.97655L10.7707 5.78349L7.53449 17.8316L10.8212 17.8344L15.602 0.0387421" fill="#3395FF"/>
<path d="M1.36124 12.7693L0 17.8344H6.7365L9.49302 7.53064L1.36124 12.7693ZM24.7614 8.31001C24.5968 8.92069 24.2795 9.36925 23.8064 9.65569C23.3343 9.94159 22.6718 10.0851 21.8167 10.0851H19.0997L20.0536 6.53603H22.7706C23.6247 6.53603 24.2114 6.67843 24.5298 6.96871C24.8482 7.25899 24.925 7.70262 24.7614 8.31603M27.5745 8.23936C27.9203 6.95776 27.7776 5.97191 27.1453 5.28181C26.514 4.5972 25.4064 4.25215 23.8256 4.25215H17.762L14.1119 17.8404H17.0578L18.5288 12.3635H20.4609C20.8945 12.3635 21.2359 12.4347 21.4851 12.5716C21.7349 12.714 21.8814 12.9605 21.9264 13.3165L22.4523 17.8404H25.6084L25.0968 13.6232C24.9925 12.6811 24.5605 12.128 23.8014 11.9637C24.7691 11.6843 25.5798 11.2188 26.233 10.5725C26.8816 9.93098 27.345 9.1269 27.5745 8.24483M34.7353 12.9769C34.4883 13.897 34.1095 14.5926 33.5974 15.08C33.0848 15.5675 32.4722 15.8085 31.7576 15.8085C31.0297 15.8085 30.5363 15.573 30.2756 15.0965C30.0143 14.62 30.0055 13.9299 30.2481 13.0262C30.4907 12.1225 30.8777 11.416 31.4101 10.9066C31.9425 10.3973 32.565 10.1426 33.2796 10.1426C33.9932 10.1426 34.4817 10.3891 34.7287 10.8781C34.9812 11.3694 34.9867 12.0721 34.7397 12.9868L34.7353 12.9769ZM36.0263 8.16816L35.6574 9.54287C35.4982 9.04994 35.1892 8.6556 34.7325 8.35985C34.2748 8.06957 33.7083 7.92169 33.0326 7.92169C32.2038 7.92169 31.4079 8.13529 30.645 8.5625C29.882 8.9897 29.2124 9.59216 28.6415 10.3699C28.0707 11.1476 27.6535 12.0294 27.3846 13.0207C27.1211 14.0175 27.0662 14.8884 27.2254 15.6442C27.3901 16.4055 27.7359 16.986 28.2683 17.3913C28.8062 17.8021 29.4923 18.0047 30.3321 18.0047C30.9994 18.0081 31.6592 17.8641 32.2642 17.583C32.8623 17.3138 33.3943 16.9175 33.823 16.4219L33.4388 17.8547H36.2875L38.8887 8.17309H36.0345L36.0263 8.16816ZM49.1255 8.16816H40.8411L40.262 10.3261H45.0824L38.7098 15.8194L38.1653 17.8459H46.717L47.296 15.688H42.131L48.6013 10.1125M56.4174 12.9605C56.1611 13.9135 55.7807 14.6298 55.2785 15.0965C54.7763 15.5675 54.1681 15.803 53.454 15.803C51.961 15.803 51.4703 14.8555 51.9797 12.9605C52.2322 12.0184 52.6142 11.3103 53.1247 10.8332C53.6351 10.3545 54.2537 10.1158 54.981 10.1158C55.6946 10.1158 56.1765 10.3529 56.4246 10.8305C56.6727 11.307 56.6705 12.0173 56.4174 12.9594M58.085 8.53237C57.429 8.12489 56.592 7.92115 55.5711 7.92115C54.5375 7.92115 53.5808 8.12379 52.7004 8.52909C51.8236 8.93184 51.0531 9.53306 50.4499 10.285C49.8297 11.0463 49.3834 11.939 49.1096 12.9577C48.8406 13.9726 48.8077 14.8637 49.0162 15.6266C49.2248 16.3879 49.6639 16.974 50.3226 17.3793C50.9868 17.7878 51.832 17.991 52.8694 17.991C53.8904 17.991 54.8399 17.7862 55.7127 17.3787C56.5854 16.969 57.3319 16.3874 57.9521 15.6206C58.5724 14.8571 59.017 13.9666 59.2914 12.9479C59.5659 11.9292 59.5988 11.0397 59.3902 10.2751C59.1816 9.51384 58.748 8.92781 58.0948 8.51978M68.2548 10.7544L68.9848 8.11996C68.7378 7.99399 68.4139 7.92827 68.0078 7.92827C67.3546 7.92827 66.7289 8.08929 66.1251 8.41571C65.6058 8.69285 65.1645 9.0839 64.7913 9.57354L65.17 8.15501L64.3428 8.1583H62.312L59.6938 17.836H62.5826L63.9411 12.777C64.1386 12.0414 64.4943 11.4625 65.0075 11.0518C65.518 10.6393 66.1547 10.4329 66.9232 10.4329C67.3952 10.4329 67.8343 10.5408 68.2515 10.756M76.2927 13.007C76.0457 13.9107 75.6724 14.6008 75.162 15.0773C74.6515 15.556 74.0368 15.7948 73.3232 15.7948C72.6096 15.7948 72.1211 15.5538 71.8632 15.0718C71.5997 14.5871 71.5942 13.8888 71.8412 12.9709C72.0882 12.0535 72.4669 11.3497 72.9884 10.8623C73.5098 10.371 74.1246 10.1256 74.8381 10.1256C75.5407 10.1256 76.0127 10.3776 76.2652 10.8869C76.5177 11.3963 76.5232 12.1028 76.2806 13.0065M78.3005 8.54826C77.7653 8.12106 77.082 7.90745 76.2532 7.90745C75.527 7.90745 74.8348 8.07176 74.1784 8.40367C73.5224 8.73502 72.99 9.18687 72.5811 9.75866L72.591 9.69293L73.0756 8.15392H70.2544L69.5353 10.8321L69.5134 10.9252L66.5494 21.958H69.442L70.935 16.4044C71.0832 16.8984 71.3851 17.2862 71.8461 17.5666C72.3072 17.8459 72.8764 17.9845 73.5532 17.9845C74.393 17.9845 75.1944 17.7818 75.9546 17.3765C76.7175 16.9701 77.3762 16.3852 77.9361 15.6294C78.4959 14.8736 78.9114 13.9973 79.1765 13.0059C79.4455 12.013 79.5004 11.1273 79.3467 10.3524C79.1903 9.57627 78.8439 8.97546 78.3093 8.55045M87.8956 12.9676C87.6486 13.8822 87.2699 14.5833 86.7594 15.0653C86.249 15.5505 85.6342 15.792 84.9206 15.792C84.1906 15.792 83.6966 15.5565 83.4387 15.08C83.1752 14.6035 83.1697 13.9135 83.4112 13.0098C83.6527 12.1061 84.038 11.3995 84.5705 10.8902C85.1029 10.3808 85.7259 10.1267 86.4405 10.1267C87.1541 10.1267 87.6371 10.3732 87.8896 10.8606C88.1421 11.3497 88.1437 12.0524 87.8978 12.9692L87.8956 12.9676ZM89.1855 8.15611L88.8161 9.53082C88.6569 9.03515 88.3495 8.64082 87.894 8.3478C87.4329 8.05533 86.8676 7.90965 86.1924 7.90965C85.3636 7.90965 84.5633 8.12325 83.7993 8.55045C83.0363 8.97765 82.3667 9.57682 81.7958 10.3524C81.225 11.1279 80.8078 12.0119 80.5389 13.0032C80.2727 13.9983 80.2205 14.8708 80.3797 15.6299C80.5405 16.3857 80.8869 16.9696 81.4226 17.3771C81.9572 17.7824 82.6466 17.9872 83.4864 17.9872C84.1615 17.9872 84.8065 17.847 85.4185 17.5655C86.0152 17.295 86.5458 16.8983 86.9735 16.4027L86.5893 17.8366H89.438L92.0386 8.15885H89.1899L89.1855 8.15611ZM103.998 8.15939L104 8.15665H102.249C102.193 8.15665 102.144 8.15939 102.093 8.16049H101.184L100.718 8.80677L100.602 8.96012L100.553 9.0368L96.8617 14.1676L96.0987 8.15939H93.0755L94.6069 17.2894L91.2257 21.9613H94.2391L95.057 20.804C95.08 20.77 95.1009 20.7415 95.1283 20.7054L96.0834 19.3526L96.1108 19.3143L100.388 13.2622L103.994 8.1687L104 8.16542H103.998V8.15939Z" fill="#072654"/>
</g>
<defs>
<clipPath id="clip0_32_417">
<rect width="104" height="22" fill="white"/>
</clipPath>
</defs>
</svg>
